<?xml version="1.0" encoding="UTF-8"?>
<svg width="22px" height="22px" viewBox="0 0 22 22" version="1.1" xmlns="http://www.w3.org/2000/svg" xmlns:xlink="http://www.w3.org/1999/xlink">
    <!-- Generator: Sketch 47 (45396) - http://www.bohemiancoding.com/sketch -->
    <title>settings</title>
    <desc>Created with Sketch.</desc>
    <defs></defs>
    <g id="Page-1" stroke="none" stroke-width="1" fill="none" fill-rule="evenodd" stroke-linecap="round" stroke-linejoin="round">
        <g id="todo" transform="translate(-318.000000, -621.000000)" stroke="#377FD8" stroke-width="1.5">
            <g id="Group-18" transform="translate(310.000000, 623.000000)">
                <g id="settings" transform="translate(10.000000, 0.000000)">
                    <path d="M16.8169869,11.0463757 C16.6263517,11.7863327 16.3212041,12.4984741 15.9144012,13.1606888 L17.0056622,14.6420385 L14.5182006,17.1378194 L12.9620388,15.9017377 C12.2982066,16.2787019 11.6032426,16.5666436 10.8940734,16.7497061 L10.7011418,18.75 L7.11885819,18.75 L6.92583174,16.7487224 C6.24032275,16.5689192 5.58000438,16.28664 4.91612061,15.9031997 L3.36179945,17.1378194 L0.858898317,14.6265474 L2.09010153,13.0661419 C1.71340719,12.3990311 1.42579702,11.7005969 1.24315774,10.9879475 L-0.75,10.7944162 L-0.75,7.20352461 L1.2992169,7.010768 C1.48280979,6.25446575 1.76065257,5.55474709 2.13818523,4.91875554 L0.918898317,3.37345265 L3.42179945,0.862180609 L4.97612061,2.09680026 C5.64000438,1.71336001 6.30032275,1.4310808 6.98583174,1.25127763 L7.17885819,-0.75 L10.7397249,-0.75 L10.9963826,1.24574979 C11.7162036,1.42972967 12.4215439,1.72182722 13.0947205,2.1054767 L14.6505101,0.934731995 L17.1411017,3.43365331 L15.9242784,4.97583379 C16.3261459,5.6334798 16.6278978,6.3400696 16.8169869,7.07402566 L18.75,7.26797346 L18.75,10.8524279 L16.8169869,11.0463757 Z" id="Shape"></path>
                    <circle id="Oval" cx="9" cy="9" r="2.55"></circle>
                </g>
            </g>
        </g>
    </g>
</svg>