<?xml version="1.0" encoding="UTF-8"?>
<svg width="38px" height="38px" viewBox="0 0 38 38" version="1.1" xmlns="http://www.w3.org/2000/svg" xmlns:xlink="http://www.w3.org/1999/xlink">
    <!-- Generator: Sketch 47 (45396) - http://www.bohemiancoding.com/sketch -->
    <title>settings</title>
    <desc>Created with Sketch.</desc>
    <defs>
        <filter x="-34.6%" y="-26.9%" width="169.2%" height="169.2%" filterUnits="objectBoundingBox" id="filter-1">
            <feOffset dx="0" dy="2" in="SourceAlpha" result="shadowOffsetOuter1"></feOffset>
            <feGaussianBlur stdDeviation="2" in="shadowOffsetOuter1" result="shadowBlurOuter1"></feGaussianBlur>
            <feColorMatrix values="0 0 0 0 0   0 0 0 0 0   0 0 0 0 0  0 0 0 0.15 0" type="matrix" in="shadowBlurOuter1" result="shadowMatrixOuter1"></feColorMatrix>
            <feMerge>
                <feMergeNode in="shadowMatrixOuter1"></feMergeNode>
                <feMergeNode in="SourceGraphic"></feMergeNode>
            </feMerge>
        </filter>
        <path d="M26,14.6956522 L26,11.4782609 L23.4,11.2173913 C23.14,9.73913043 22.5333333,8.34782609 21.6666667,7.13043478 L23.3133333,5.04347826 L21.06,2.7826087 L18.98,4.34782609 C17.7666667,3.56521739 16.38,2.95652174 14.9066667,2.69565217 L14.56,0 L11.3533333,0 L11.0933333,2.69565217 C9.62,2.95652174 8.32,3.56521739 7.10666667,4.34782609 L5.02666667,2.69565217 L2.77333333,4.95652174 L4.42,7.04347826 C3.55333333,8.26086957 3.03333333,9.65217391 2.77333333,11.1304348 L0,11.3913043 L0,14.6086957 L2.68666667,14.8695652 C2.94666667,16.3478261 3.55333333,17.7391304 4.33333333,18.9565217 L2.68666667,21.0434783 L4.94,23.3043478 L7.02,21.6521739 C8.23333333,22.4347826 9.53333333,23.0434783 11.0066667,23.3043478 L11.2666667,26 L14.4733333,26 L14.7333333,23.3043478 C16.2066667,23.0434783 17.5933333,22.4347826 18.8066667,21.6521739 L20.8866667,23.3043478 L23.14,21.0434783 L21.6666667,19.0434783 C22.5333333,17.826087 23.14,16.4347826 23.4,14.9565217 L26,14.6956522 Z" id="path-2"></path>
        <path d="M26,14.6956522 L26,11.4782609 L23.4,11.2173913 C23.14,9.73913043 22.5333333,8.34782609 21.6666667,7.13043478 L23.3133333,5.04347826 L21.06,2.7826087 L18.98,4.34782609 C17.7666667,3.56521739 16.38,2.95652174 14.9066667,2.69565217 L14.56,0 L11.3533333,0 L11.0933333,2.69565217 C9.62,2.95652174 8.32,3.56521739 7.10666667,4.34782609 L5.02666667,2.69565217 L2.77333333,4.95652174 L4.42,7.04347826 C3.55333333,8.26086957 3.03333333,9.65217391 2.77333333,11.1304348 L0,11.3913043 L0,14.6086957 L2.68666667,14.8695652 C2.94666667,16.3478261 3.55333333,17.7391304 4.33333333,18.9565217 L2.68666667,21.0434783 L4.94,23.3043478 L7.02,21.6521739 C8.23333333,22.4347826 9.53333333,23.0434783 11.0066667,23.3043478 L11.2666667,26 L14.4733333,26 L14.7333333,23.3043478 C16.2066667,23.0434783 17.5933333,22.4347826 18.8066667,21.6521739 L20.8866667,23.3043478 L23.14,21.0434783 L21.6666667,19.0434783 C22.5333333,17.826087 23.14,16.4347826 23.4,14.9565217 L26,14.6956522 Z" id="path-3"></path>
        <circle id="path-5" cx="12.5" cy="12.5" r="2.5"></circle>
    </defs>
    <g id="Page-1" stroke="none" stroke-width="1" fill="none" fill-rule="evenodd">
        <g id="setting" transform="translate(-310.000000, -612.000000)">
            <g id="Group-18" transform="translate(310.000000, 616.000000)">
                <g id="settings" filter="url(#filter-1)" transform="translate(6.000000, 0.000000)">
                    <g id="Shape" stroke-linecap="round" stroke-linejoin="round">
                        <use fill="#377FD8" fill-rule="evenodd" xlink:href="#path-2"></use>
                        <path stroke="#377FD8" stroke-width="1.5" d="M24.0237085,15.647708 C23.7457647,16.8357514 23.2571913,17.9768356 22.5844733,19.0248433 L24.1256622,21.1169549 L20.9448672,24.308388 L18.7524511,22.5669203 C17.6898146,23.1941492 16.5690842,23.6585299 15.4267646,23.9269315 L15.1544751,26.75 L10.5855249,26.75 L10.3131734,23.9262888 C9.20558863,23.6631119 8.14608065,23.2099238 7.07282072,22.5680282 L4.88179945,24.308388 L1.68556498,21.1014637 L3.42051639,18.9026167 C2.79431868,17.8353848 2.33084223,16.7097646 2.06321389,15.5625565 L-0.75,15.2893995 L-0.75,10.7085413 L2.14691314,10.4360474 C2.42032997,9.20711634 2.86561234,8.0839104 3.49378534,7.08040328 L1.77223165,4.89853626 L4.96846611,1.69161205 L7.15948739,3.43197176 C8.23274732,2.79007624 9.29225529,2.33688806 10.39984,2.0737112 L10.6721915,-0.75 L15.2197249,-0.75 L15.5822401,2.06888892 C16.7352499,2.33768735 17.866467,2.80624765 18.938374,3.44052005 L21.1305101,1.79091929 L24.314435,4.98549278 L22.5947084,7.16504414 C23.2621484,8.20866884 23.7471763,9.34419527 24.0237085,10.5262051 L26.75,10.799746 L26.75,15.374167 L24.0237085,15.647708 Z"></path>
                    </g>
                    <g id="Oval-Copy-3">
                        <mask id="mask-4" fill="white">
                            <use xlink:href="#path-3"></use>
                        </mask>
                        <use id="Mask" fill="#377FD8" xlink:href="#path-3"></use>
                        <circle fill="#FFFFFF" opacity="0.152060688" mask="url(#mask-4)" cx="22.5" cy="7.5" r="7.5"></circle>
                    </g>
                    <g id="Oval" stroke-linecap="round" stroke-linejoin="round">
                        <use fill="#FFFFFF" fill-rule="evenodd" xlink:href="#path-5"></use>
                        <circle stroke="#377FD8" stroke-width="1.5" cx="12.5" cy="12.5" r="3.25"></circle>
                    </g>
                </g>
            </g>
        </g>
    </g>
</svg>